<svg version="1.1" id="Layer_1" xmlns="http://www.w3.org/2000/svg" xmlns:xlink="http://www.w3.org/1999/xlink" x="0px" y="0px"
	 width="100%" viewBox="0 0 1024 1024" enable-background="new 0 0 1024 1024" xml:space="preserve">
<path fill="#000000" opacity="1.000000" stroke="none" 
	d="
M655.288025,609.289124 
	C620.544556,641.814697 589.207458,676.957397 559.534607,713.679138 
	C537.968506,740.368225 515.930847,766.696289 491.137909,790.535889 
	C464.710449,815.947266 435.655609,837.492371 400.723328,849.818604 
	C347.647034,868.546936 296.272949,865.505798 248.734467,834.029541 
	C208.101791,807.125793 183.707077,768.541260 175.970581,720.419556 
	C168.705978,675.233154 177.451782,632.357422 198.349472,591.814636 
	C217.246048,555.154114 244.650543,525.607788 275.983856,499.472961 
	C323.902893,459.504150 368.999481,416.589203 411.951324,371.346924 
	C439.495453,342.333954 465.004059,311.514313 492.121490,282.132721 
	C512.924255,259.593109 533.984802,237.301529 558.667847,218.843262 
	C584.035217,199.873260 611.520081,185.195312 642.928284,179.227066 
	C697.746277,168.810486 746.633667,182.123810 789.340393,217.641922 
	C821.908875,244.728271 841.359741,279.702484 847.873840,321.478027 
	C853.885132,360.029480 846.683167,396.646912 829.469055,431.453247 
	C813.652893,463.432770 790.989075,490.052734 765.064880,514.188171 
	C739.679443,537.822083 711.735168,558.428101 685.872986,581.487915 
	C675.678101,590.578125 665.646667,599.851746 655.288025,609.289124 
M256.311951,592.798096 
	C250.269943,601.416260 245.017746,610.507324 240.571625,620.031433 
	C226.709702,649.725098 220.347977,680.773010 226.592865,713.294128 
	C240.759430,787.068420 311.134308,824.359741 380.052734,802.314514 
	C409.811584,792.795410 434.104034,774.645874 456.311981,753.287231 
	C483.531647,727.108582 506.971405,697.589172 531.067688,668.663940 
	C559.145874,634.958923 588.423767,602.403931 620.559204,572.482300 
	C651.558838,543.618225 684.581238,517.121460 716.889282,489.784149 
	C740.784973,469.564941 762.471985,447.309570 778.510193,420.070007 
	C793.559937,394.509216 800.955994,366.963715 798.420166,337.400970 
	C795.702454,305.717468 782.246765,278.910278 758.199097,257.827545 
	C728.591675,231.870483 694.189819,221.975708 655.292908,228.046570 
	C628.292114,232.260757 605.512207,245.461716 584.555847,262.187653 
	C562.597229,279.713531 543.704590,300.413055 524.795105,321.051086 
	C497.896576,350.408478 471.969025,380.638885 444.525085,409.514160 
	C406.259888,449.774963 366.202240,488.113129 323.840912,524.032959 
	C299.412109,544.747009 275.225708,565.672729 256.311951,592.798096 
z"/>
<path fill="#000000" opacity="1.000000" stroke="none" 
	d="
M597.134521,776.849792 
	C618.438538,792.035950 641.110535,803.238892 666.901611,807.126770 
	C714.785400,814.345093 762.444885,794.339417 787.106689,748.450623 
	C806.227234,712.872437 805.286499,675.871521 792.924011,638.580566 
	C783.362488,609.738831 766.533813,585.293091 745.515198,563.623596 
	C742.870422,560.896912 742.311646,559.225952 745.619202,556.507019 
	C755.784119,548.151184 765.788086,539.591248 775.643127,530.871521 
	C778.847107,528.036621 780.890381,528.041382 783.870056,531.233826 
	C818.076965,567.883423 842.288147,609.785461 849.935364,659.884583 
	C858.869263,718.412598 844.771606,770.499939 802.833069,813.328857 
	C777.359680,839.343262 745.977966,854.634033 709.650024,859.435486 
	C662.608521,865.652893 620.358704,852.466003 581.043396,827.708740 
	C562.349548,815.937012 545.860535,801.396362 530.449951,785.596436 
	C527.725952,782.803711 527.338257,781.057617 530.221497,777.858398 
	C539.141418,767.961182 547.701538,757.732544 556.193481,747.460754 
	C558.857727,744.238159 560.474060,743.929504 563.547180,747.225037 
	C573.679138,758.090271 585.127319,767.534729 597.134521,776.849792 
z"/>
<path fill="#000000" opacity="1.000000" stroke="none" 
	d="
M393.249603,233.850006 
	C343.440887,217.673889 299.328552,226.839783 262.002350,263.157410 
	C235.756790,288.693817 225.333481,321.025970 227.516617,357.201599 
	C229.238602,385.735687 240.630981,410.937775 256.811310,434.155914 
	C263.971649,444.430664 271.902191,454.075684 280.646301,463.020752 
	C283.520935,465.961487 283.647125,467.883636 280.340149,470.600403 
	C270.046631,479.056824 259.914551,487.712708 249.834946,496.424408 
	C247.284256,498.628906 245.600113,498.623138 243.200958,496.087219 
	C217.472900,468.892883 196.778641,438.550262 185.157089,402.658478 
	C159.515228,323.466705 190.582855,240.956116 262.776276,199.065491 
	C292.210968,181.985855 324.032196,174.075043 357.948822,175.889587 
	C386.991241,177.443375 414.084869,186.258591 439.428284,200.501831 
	C460.031189,212.080856 478.561218,226.385818 495.612061,242.701843 
	C498.284790,245.259384 499.042603,246.985458 496.009430,249.934174 
	C486.572083,259.108826 477.627777,268.779938 469.185272,278.873688 
	C466.245087,282.388885 464.390686,282.108887 461.296417,279.122375 
	C444.060730,262.486969 425.274628,247.967896 403.312134,237.973267 
	C400.133881,236.526901 396.848114,235.316757 393.249603,233.850006 
z"/>
<path fill="#000000" opacity="1.000000" stroke="none" 
	d="
M722.947388,600.065308 
	C740.097229,619.709106 753.083313,641.166870 757.683350,666.882324 
	C762.560486,694.146729 758.831177,719.671753 739.191162,740.500916 
	C717.423157,763.587036 690.383728,769.657837 660.068420,761.651917 
	C634.953796,755.019348 615.023865,739.866638 596.936584,721.976135 
	C593.453186,718.530579 587.644836,715.785217 587.508667,710.986389 
	C587.379700,706.441162 592.874634,703.338196 595.933960,699.661194 
	C603.256042,690.860779 610.887451,682.317688 618.166992,673.932190 
	C620.933105,674.297363 621.796631,676.100830 623.028687,677.362915 
	C634.682007,689.299988 646.199341,701.433899 661.949951,708.142212 
	C669.171021,711.217712 676.490295,713.502991 684.675049,711.939575 
	C701.020142,708.817322 711.124878,694.232544 708.386292,677.717041 
	C705.493347,660.270691 696.498535,646.137268 685.167358,633.169128 
	C681.989075,629.531738 678.759399,625.930969 675.390625,622.471741 
	C673.370605,620.397400 673.027283,618.831177 675.419739,616.721863 
	C686.040466,607.358093 696.585693,597.907776 707.083008,588.405701 
	C709.213684,586.477051 710.805359,586.818665 712.563293,588.766479 
	C715.911011,592.475586 719.323608,596.126160 722.947388,600.065308 
z"/>
<path fill="#000000" opacity="1.000000" stroke="none" 
	d="
M322.288635,339.360321 
	C318.075378,350.507751 320.613373,360.749390 324.990173,370.695618 
	C330.378967,382.941528 339.153229,392.818481 348.250244,402.362366 
	C350.896851,405.138977 351.208801,406.924072 348.226318,409.638580 
	C338.245819,418.722137 328.457855,428.017395 318.609894,437.246246 
	C316.899506,438.849060 315.249023,440.104065 313.104370,437.844666 
	C293.860138,417.571136 276.876251,395.878052 271.072876,367.636078 
	C261.514008,321.118652 289.918732,278.501526 336.393616,270.097137 
	C362.820709,265.318115 386.401733,273.453064 408.109375,288.168640 
	C417.657196,294.641113 426.058899,302.510986 434.647919,310.152435 
	C437.517090,312.705078 438.092621,314.863251 435.127747,318.018402 
	C426.002197,327.729706 417.087250,337.641998 408.228943,347.599396 
	C405.713562,350.426880 404.024231,350.798676 401.054565,347.863892 
	C390.099152,337.037323 378.375763,327.198456 363.415070,322.184265 
	C346.059662,316.367493 330.209595,322.867493 322.288635,339.360321 
z"/>
<path fill="#000000" opacity="1.000000" stroke="none" 
	d="
M479.439087,432.433167 
	C497.381927,412.480072 515.048035,392.750366 532.790039,373.089233 
	C553.878967,349.719147 574.453796,325.842560 597.795776,304.629242 
	C614.596008,289.361084 632.970215,276.708862 655.531067,271.189117 
	C702.820374,259.619263 748.509338,289.610382 755.970825,337.760193 
	C760.073975,364.238739 751.587708,387.740845 736.691528,409.228241 
	C721.352112,431.354919 701.415771,449.068512 680.959473,466.214478 
	C637.170471,502.917297 593.202942,539.429077 553.861816,581.038452 
	C528.222046,608.156433 503.844635,636.395325 480.023407,665.123108 
	C462.477814,686.282593 444.785095,707.335876 424.637268,726.132629 
	C407.535858,742.087219 388.867188,755.565552 365.867767,761.801392 
	C325.949158,772.624390 287.697083,754.826477 272.483826,717.753906 
	C263.485443,695.826050 265.163544,673.445251 272.352661,651.303345 
	C281.434357,623.332458 299.409851,601.353027 320.621338,581.938599 
	C343.594818,560.911438 367.459106,540.860596 390.586243,519.997498 
	C421.397339,492.202698 450.983093,463.133850 479.439087,432.433167 
M317.404633,684.221130 
	C317.626312,685.361633 317.867157,686.498718 318.066711,687.643066 
	C320.499939,701.596130 328.067383,709.565552 342.022766,711.976440 
	C352.416656,713.772095 361.695801,709.772644 370.426147,704.779297 
	C387.315216,695.119568 400.097534,680.812805 412.814880,666.478394 
	C417.487732,661.211365 417.467133,659.108337 412.754211,653.669434 
	C400.100006,639.065796 386.595093,625.296387 372.315979,612.280579 
	C367.746948,608.115784 366.184479,608.161194 361.278137,612.316101 
	C351.584534,620.525024 342.927948,629.737488 335.185181,639.763977 
	C325.260986,652.615234 318.008484,666.657593 317.404633,684.221130 
M674.531250,320.271454 
	C666.265686,320.150513 658.774963,322.918793 651.848755,327.023560 
	C635.923096,336.461823 622.966248,349.378052 610.646606,362.994598 
	C608.656921,365.193695 609.124512,367.117371 610.829834,369.176483 
	C624.659119,385.874969 639.938477,401.165924 655.914185,415.788818 
	C658.486389,418.143250 660.779358,418.119629 663.295593,415.693726 
	C669.284424,409.919922 675.671997,404.526672 681.330933,398.450989 
	C691.816711,387.192963 701.223633,375.216736 705.094910,359.759827 
	C710.084167,339.839020 695.912598,320.783966 674.531250,320.271454 
M548.280640,507.347351 
	C542.021118,500.895721 535.758118,494.447510 529.503357,487.991272 
	C525.450623,483.808014 521.511230,479.508209 517.323303,475.465546 
	C515.072937,473.293304 512.498230,470.830444 509.240295,474.207550 
	C498.259827,485.589844 487.263672,496.957184 476.333466,508.387573 
	C473.563965,511.283813 473.701843,514.199036 476.605713,517.131348 
	C487.028992,527.656860 497.404938,538.229797 507.732422,548.849365 
	C510.600189,551.798157 513.106812,552.115173 516.186951,549.023743 
	C526.761414,538.410583 537.438232,527.898438 548.158386,517.432129 
	C551.348999,514.317139 551.875916,511.292419 548.280640,507.347351 
M548.791870,430.292633 
	C546.197937,433.247009 547.990356,435.556671 550.027039,437.652527 
	C562.314575,450.296967 574.676636,462.869110 586.948120,475.529022 
	C589.125366,477.775238 591.129211,477.878815 593.422974,475.900970 
	C601.233765,469.166107 609.074768,462.466187 616.860413,455.702515 
	C619.839966,453.114044 619.830078,450.556396 616.908936,447.687958 
	C603.495422,434.516602 590.036316,421.382446 577.731873,407.139709 
	C574.960388,403.931549 572.422241,403.716034 569.507507,407.039398 
	C562.817810,414.666931 555.996155,422.178802 548.791870,430.292633 
M467.363464,602.869873 
	C469.445557,600.487915 471.524902,598.103516 473.610413,595.724548 
	C476.602661,592.311218 476.723053,588.897461 473.638153,585.465942 
	C462.944183,573.570374 451.591248,562.319580 440.141571,551.161255 
	C437.293488,548.385620 434.354675,547.964722 431.319183,550.661072 
	C423.851257,557.294556 416.411835,563.960999 409.029358,570.689209 
	C406.487549,573.005737 406.393250,575.707886 408.890228,578.097046 
	C422.249237,590.879211 435.190582,604.065857 447.541016,617.825073 
	C450.266998,620.862000 452.481201,620.330139 454.877716,617.445007 
	C458.813507,612.706970 462.882141,608.079346 467.363464,602.869873 
z"/>
</svg>