<?xml version="1.0" encoding="utf-8"?>
<svg version="1.0" xmlns="http://www.w3.org/2000/svg" width="509px" height="478px" viewBox="0 0 509 478" preserveAspectRatio="xMidYMid meet">
 <g fill="#f4f3f4">
  <path d="M0 239.08 l0 -239.08 254.50 0 254.50 0 0 239.08 0 239.08 -254.50 0 -254.50 0 0 -239.08z m245.20 181.23 c3.28 -5.16 11.23 -17.74 17.69 -27.96 6.46 -10.22 15.81 -24.97 20.77 -32.78 4.96 -7.81 14.89 -23.62 22.08 -35.04 l13.06 -20.87 2.07 0 c1.98 0 2.07 0.05 2.07 1.49 0 1.74 0.10 1.40 -15.67 43.57 -14.17 37.84 -21.30 56.97 -26.12 70.13 -2.02 5.45 -3.76 10.17 -3.86 10.51 -0.19 0.43 7.95 0.58 39.77 0.58 l40.05 0 5.74 -8.29 c6.94 -10.17 19.91 -29.11 38.51 -56.30 7.71 -11.28 18.32 -26.70 23.57 -34.32 10.41 -15.09 30.41 -44.25 31.67 -46.18 0.77 -1.16 0.67 -1.45 -2.60 -8.19 -1.88 -3.86 -6.22 -12.82 -9.59 -20 -3.42 -7.13 -10.07 -21.16 -14.85 -31.09 l-8.68 -18.08 -32.92 -7.09 c-18.12 -3.90 -44.68 -9.64 -59 -12.73 -14.32 -3.08 -28.68 -6.17 -31.96 -6.84 l-5.93 -1.25 0.14 -1.93 0.14 -1.98 57.26 -0.14 c31.48 -0.05 57.21 -0.19 57.21 -0.34 0 -0.29 -40.39 -82.33 -55.24 -112.31 l-8.63 -17.35 -5.06 -0.14 c-2.80 -0.05 -8.97 0.05 -13.74 0.24 l-8.63 0.39 -6.70 8.68 c-9.93 12.92 -36.83 48.25 -48.49 63.63 -5.59 7.42 -15.42 20.44 -21.83 28.87 -6.41 8.48 -11.62 15.67 -11.62 15.91 0 0.48 12.53 24.53 26.46 50.90 l4.43 8.44 4.53 1.01 c2.46 0.58 15.57 3.66 29.07 6.89 23.43 5.64 91.73 21.74 95.15 22.46 1.49 0.34 1.78 0.72 4.24 5.98 8.19 17.30 11.23 24.29 11.23 25.79 0 1.21 -2.22 5.11 -9.74 17.21 -5.40 8.63 -13.45 21.69 -17.98 29.02 -7.95 12.92 -8.24 13.30 -9.74 13.35 -1.49 0 -1.59 -0.10 -2.60 -3.47 -2.80 -9.64 -19.81 -65.41 -20.24 -66.47 -0.58 -1.40 2.27 -0.67 -61.12 -16.20 l-18.94 -4.68 -0.92 1.21 c-0.48 0.63 -2.70 3.76 -4.92 6.94 -2.22 3.18 -5.98 8.48 -8.29 11.81 -5.88 8.34 -34.37 49.65 -50.85 73.75 -21.35 31.19 -19.81 29.11 -21.83 29.31 -1.30 0.10 -5.54 -1.45 -18.51 -6.80 -15.76 -6.56 -65.55 -26.94 -67.96 -27.86 l-1.06 -0.39 1.40 3.71 c0.72 2.02 3.37 8.92 5.78 15.28 2.46 6.36 5.25 13.74 6.27 16.39 1.01 2.65 3.47 9.06 5.45 14.22 1.98 5.16 5.49 14.41 7.81 20.49 2.31 6.12 4.82 12.77 5.64 14.85 l1.40 3.71 59.58 -0.10 59.58 -0.14 5.98 -9.40z m-55.48 -117.75 c20.58 -29.74 32.29 -46.71 37.60 -54.42 l5.49 -8 -9.21 -17.30 c-10.85 -20.29 -18.80 -35.28 -28.63 -53.89 -3.90 -7.42 -8.92 -16.92 -11.13 -21.16 -2.22 -4.19 -4.05 -8.19 -4.05 -8.92 0 -0.92 4.05 -6.51 14.80 -20.53 24.63 -32.15 47.82 -62.37 51.77 -67.48 2.07 -2.65 3.66 -4.87 3.62 -4.96 -0.10 -0.10 -18.99 -0.14 -42.03 -0.14 l-41.89 0 -6.03 10.75 c-20.29 36.01 -25.16 44.68 -33.64 59.67 -5.21 9.16 -9.64 16.97 -9.88 17.40 -0.53 0.87 -0.34 1.35 6.89 14.89 2.07 3.86 7.33 13.74 11.71 21.93 9.74 18.27 17.06 31.96 23.18 43.28 2.89 5.35 4.63 9.06 4.63 9.98 0 1.30 -0.14 1.45 -1.64 1.45 -1.49 0 -3.76 -2.17 -31.62 -30.41 -24 -24.24 -30.17 -30.22 -30.61 -29.74 -0.63 0.67 -11.13 19.23 -35.43 62.56 -8.53 15.23 -16.29 28.97 -17.16 30.51 l-1.64 2.80 1.83 0.72 c0.96 0.43 14.46 6.07 29.98 12.58 15.52 6.51 33.31 13.98 39.52 16.58 6.22 2.60 23.04 9.59 37.36 15.57 14.32 5.98 26.17 10.70 26.32 10.51 0.14 -0.19 4.63 -6.56 9.88 -14.22z"/>
 </g>
 <g fill="#000000">
  <path d="M117.22 427.69 c-0.82 -2.07 -3.33 -8.72 -5.64 -14.85 -2.31 -6.07 -6.31 -16.63 -8.92 -23.38 -15.67 -40.87 -19.38 -50.66 -19.18 -51.04 0.14 -0.29 35.38 13.98 73.84 29.88 13.50 5.59 16.44 6.65 16.92 6.12 0.82 -0.82 4.10 -5.54 23.14 -33.40 19.47 -28.44 37.26 -54.23 46.22 -67 3.71 -5.30 8.24 -11.76 10.03 -14.36 4.82 -6.94 5.74 -8.05 6.60 -8.05 0.43 0 14.46 3.37 31.14 7.47 16.73 4.15 34.85 8.58 40.30 9.93 8.82 2.12 9.98 2.55 10.46 3.57 0.48 1.01 -0.53 2.75 -10.27 18.08 -5.93 9.35 -10.94 17.11 -11.13 17.30 -0.34 0.24 -0.19 -0.24 0.58 -2.12 0.19 -0.43 0.05 -0.72 -0.39 -0.72 -0.34 0 -6.56 9.40 -13.74 20.87 -7.18 11.42 -17.11 27.23 -22.08 35.04 -4.96 7.81 -14.32 22.56 -20.77 32.78 -6.46 10.22 -14.41 22.80 -17.69 27.96 l-5.98 9.40 -61.02 0.14 -61.02 0.10 -1.40 -3.71z"/>
  <path d="M154.24 308.68 c-14.17 -5.93 -31.96 -13.40 -39.52 -16.53 -7.57 -3.18 -26.08 -10.94 -41.21 -17.30 -15.14 -6.31 -28.29 -11.81 -29.31 -12.15 -0.96 -0.39 -1.78 -0.87 -1.78 -1.06 0 -0.24 5.40 -10.03 12 -21.74 6.56 -11.71 14.99 -26.70 18.70 -33.35 5.49 -9.78 24.53 -43.48 25.59 -45.31 0.14 -0.24 14.36 13.74 31.57 31.09 26.12 26.37 31.04 31.14 29.84 28.92 -0.77 -1.45 -2.17 -4.05 -3.08 -5.78 -0.96 -1.74 -3.13 -5.74 -4.82 -8.92 -3.66 -6.70 -19.91 -37.11 -26.32 -49.16 -2.36 -4.48 -6.07 -11.52 -8.24 -15.57 l-3.90 -7.37 9.35 -16.48 c5.11 -9.06 13.83 -24.49 19.38 -34.32 5.49 -9.78 12.77 -22.70 16.10 -28.63 l6.12 -10.85 44.63 0 c24.58 -0.05 44.68 0 44.68 0.10 0 0.05 -2.22 2.99 -4.96 6.51 -5.01 6.41 -25.84 33.50 -53.02 69.02 l-14.75 19.23 0.87 1.49 c0.48 0.77 3.62 6.65 6.94 13.01 3.28 6.36 7.81 14.94 9.98 19.04 2.17 4.10 6.03 11.38 8.58 16.15 2.51 4.77 9.69 18.22 15.91 29.88 6.22 11.66 11.33 21.45 11.33 21.69 0 0.29 -3.23 5.16 -7.18 10.85 -14.75 21.35 -27.23 39.48 -37.07 53.70 -5.54 8.10 -10.22 14.70 -10.36 14.70 -0.14 -0.05 -11.86 -4.92 -26.03 -10.85z"/>
 </g>
 <g fill="#879093">
  <path d="M275.56 428.41 c0.67 -1.69 3.04 -7.90 5.21 -13.88 2.22 -5.98 6.12 -16.48 8.68 -23.38 7.71 -20.68 29.60 -79.29 30.85 -82.62 0.77 -2.02 1.01 -3.23 0.72 -3.42 -0.63 -0.39 19.71 -32.73 20.58 -32.73 0.29 -0.05 0.67 0.34 0.82 0.82 0.14 0.43 4.48 14.70 9.64 31.67 5.16 16.97 9.83 32.49 10.41 34.42 0.82 2.84 1.16 3.42 1.54 2.80 0.24 -0.48 7.09 -11.52 15.18 -24.58 8.10 -13.01 16 -25.79 17.59 -28.34 l2.84 -4.63 -2.46 -5.35 c-2.17 -4.72 -2.41 -5.54 -2.02 -6.94 0.82 -2.75 6.60 -18.22 13.83 -36.73 10.89 -28 11.52 -29.45 12.48 -29.45 0.87 0 4 6.31 24.39 49.16 3.42 7.18 7.90 16.58 10.03 20.92 l3.81 7.90 -10.12 14.75 c-5.54 8.10 -11.47 16.73 -13.11 19.09 -1.64 2.41 -8.05 11.71 -14.32 20.73 -6.22 9.01 -16.24 23.67 -22.32 32.54 -14.46 21.21 -28.44 41.60 -35.52 51.96 l-5.74 8.29 -42.13 0 -42.13 0 1.25 -2.99z"/>
 </g>
 <g fill="#1f0c4f">
  <path d="M261.01 172.99 c-12.73 -2.84 -26.17 -5.83 -29.88 -6.60 -6.27 -1.30 -6.80 -1.49 -7.18 -2.65 -0.48 -1.35 -2.94 2.02 33.98 -46.85 11.71 -15.47 38.66 -50.80 48.49 -63.63 l6.70 -8.68 8.63 -0.34 c4.77 -0.24 11.62 -0.34 15.18 -0.24 l6.51 0.10 8.15 16.39 c4.48 9.01 19.09 38.61 32.44 65.79 13.40 27.19 24.58 49.69 24.82 50.03 0.39 0.43 -11.18 0.58 -57.65 0.58 -51.24 0 -58.18 0.10 -58.42 0.72 -0.24 0.58 -1.16 0.72 -4.48 0.67 -3.37 -0.05 -8.39 -1.01 -27.28 -5.30z"/>
 </g>
 <g fill="#37257c">
  <path d="M390.67 265.20 c-4.43 -9.54 -4.96 -10.46 -6.27 -10.80 -0.82 -0.24 -17.06 -4.05 -36.15 -8.53 -19.09 -4.48 -45.74 -10.80 -59.29 -14.07 -13.50 -3.23 -26.61 -6.31 -29.07 -6.89 l-4.53 -1.01 -4.19 -7.95 c-17.69 -33.45 -27.04 -51.67 -26.75 -52.11 0.39 -0.67 -1.06 -0.96 33.07 6.60 21.11 4.68 30.08 6.46 32.39 6.46 2.46 0 3.08 0.14 2.89 0.63 -0.19 0.48 1.01 0.92 4.72 1.69 2.75 0.58 17.01 3.62 31.72 6.80 14.70 3.18 41.60 8.97 59.77 12.87 18.17 3.86 33.21 7.23 33.45 7.47 0.24 0.24 0.24 0.63 -0.10 1.01 -1.25 1.54 -24.78 62.42 -25.88 67.05 -0.19 0.72 -0.48 1.30 -0.67 1.30 -0.14 -0.05 -2.46 -4.72 -5.11 -10.51z"/>
 </g>
</svg>
